<svg width="16" height="16" viewBox="0 0 16 16" fill="none" xmlns="http://www.w3.org/2000/svg">
<path d="M12.668 7.33329H8.66797V3.33329C8.66797 3.15648 8.59773 2.98691 8.47271 2.86189C8.34768 2.73686 8.17811 2.66663 8.0013 2.66663C7.82449 2.66663 7.65492 2.73686 7.5299 2.86189C7.40487 2.98691 7.33464 3.15648 7.33464 3.33329V7.33329H3.33464C3.15782 7.33329 2.98826 7.40353 2.86323 7.52855C2.73821 7.65358 2.66797 7.82315 2.66797 7.99996C2.66797 8.17677 2.73821 8.34634 2.86323 8.47136C2.98826 8.59639 3.15782 8.66663 3.33464 8.66663H7.33464V12.6666C7.33464 12.8434 7.40487 13.013 7.5299 13.138C7.65492 13.2631 7.82449 13.3333 8.0013 13.3333C8.17811 13.3333 8.34768 13.2631 8.47271 13.138C8.59773 13.013 8.66797 12.8434 8.66797 12.6666V8.66663H12.668C12.8448 8.66663 13.0143 8.59639 13.1394 8.47136C13.2644 8.34634 13.3346 8.17677 13.3346 7.99996C13.3346 7.82315 13.2644 7.65358 13.1394 7.52855C13.0143 7.40353 12.8448 7.33329 12.668 7.33329Z" fill="black"/>
</svg>
