<svg width="51" height="50" viewBox="0 0 51 50" fill="none" xmlns="http://www.w3.org/2000/svg">
<path d="M18.7388 22.3399C19.3096 22.6482 20.0055 22.5232 20.4305 22.0357L30.4242 10.5982C29.9888 10.4003 29.4909 10.3274 28.9846 10.4191L6.67422 14.4316C6.16797 14.5232 5.7263 14.7649 5.38672 15.1003L18.7388 22.3378V22.3399Z" fill="#241D56"/>
<path d="M45.8846 19.8419L38.2908 17.0669C38.0533 16.9794 37.8117 16.9294 37.5721 16.9107C37.5054 16.9065 37.4388 16.9023 37.3742 16.9023C36.2846 16.9023 35.2617 17.5732 34.8658 18.6565L28.4013 36.3357C27.895 37.7211 28.6075 39.2544 29.9929 39.7607L37.5867 42.5357C37.8242 42.6232 38.0658 42.6732 38.3054 42.6919C38.3721 42.6961 38.4388 42.7003 38.5033 42.7003C39.5929 42.7003 40.6158 42.0294 41.0117 40.9461L47.4763 23.2669C47.9825 21.8815 47.27 20.3482 45.8846 19.8419Z" fill="#4062CC"/>
<path d="M35.6332 36.1059L35.6312 36.1052C34.9353 35.8508 34.1649 36.2087 33.9105 36.9046L33.9097 36.9066C33.6553 37.6025 34.0133 38.3729 34.7092 38.6273L34.7112 38.6281C35.4071 38.8825 36.1775 38.5245 36.4319 37.8286L36.4326 37.8266C36.687 37.1307 36.3291 36.3603 35.6332 36.1059Z" fill="#1C1C1C"/>
<path d="M32.8971 18.3457L31.8263 12.3915C31.8055 12.279 31.7763 12.1707 31.7409 12.0645L21.9055 23.3207C21.2513 24.0686 20.3367 24.4645 19.4013 24.4645C18.8596 24.4645 18.3138 24.3311 17.8076 24.0561L4.66797 16.9353C4.67214 17.0457 4.68255 17.1582 4.7013 17.2707L7.2513 31.4436C7.49089 32.7728 8.76172 33.6561 10.0909 33.4186L28.6034 30.0895L32.8971 18.3478V18.3457Z" fill="#241D56"/>
</svg>
