<svg width="51" height="50" viewBox="0 0 51 50" fill="none" xmlns="http://www.w3.org/2000/svg">
<path d="M38.0763 40.4749C38.9325 34.4083 34.7096 28.7937 28.643 27.9374C22.5763 27.0812 16.9638 31.3041 16.1055 37.3708L38.0763 40.4749Z" fill="#4F0942"/>
<path d="M37.1261 24.6072C40.0932 21.3895 39.8901 16.3758 36.6724 13.4087C33.4547 10.4416 28.441 10.6448 25.4739 13.8624C22.5069 17.0801 22.71 22.0938 25.9276 25.0609C29.1453 28.0279 34.159 27.8248 37.1261 24.6072Z" fill="#A01670"/>
<path d="M19.3101 16.1268C17.658 15.6372 15.9205 16.6018 15.3268 18.2205L14.808 19.6351L13.3935 19.1163C11.7768 18.5226 9.91638 19.2247 9.22054 20.7997C8.45804 22.5268 9.31846 24.5122 11.0622 25.1538L12.581 25.7122L16.783 27.2559C17.8164 27.6351 18.9601 27.1059 19.3393 26.0726L20.3226 23.3872L21.4351 20.3497C22.0747 18.6038 21.1185 16.6622 19.308 16.1268H19.3101Z" fill="#FF534A"/>
</svg>
