<svg width="51" height="50" viewBox="0 0 51 50" fill="none" xmlns="http://www.w3.org/2000/svg">
<path d="M37.9987 20.833H12.9987C10.6975 20.833 8.83203 22.6985 8.83203 24.9997V37.4997C8.83203 39.8009 10.6975 41.6663 12.9987 41.6663H37.9987C40.2999 41.6663 42.1654 39.8009 42.1654 37.4997V24.9997C42.1654 22.6985 40.2999 20.833 37.9987 20.833Z" fill="#FFBF31"/>
<path d="M15.0846 14.583H35.918C38.218 14.583 40.0846 16.4497 40.0846 18.7497H10.918C10.918 16.4497 12.7846 14.583 15.0846 14.583Z" fill="#FF534A"/>
<path d="M17.1667 8.33301H33.8333C36.1333 8.33301 38 10.1997 38 12.4997H13C13 10.1997 14.8667 8.33301 17.1667 8.33301Z" fill="#4F0942"/>
</svg>
