<svg width="51" height="50" viewBox="0 0 51 50" fill="none" xmlns="http://www.w3.org/2000/svg">
<path fill-rule="evenodd" clip-rule="evenodd" d="M18.7695 20.6567C18.1674 20.0546 17.1383 20.4817 17.1383 21.3317V26.1921H9.01536C8.2237 26.1921 7.58203 26.8338 7.58203 27.6255V34.3151C7.58203 35.1067 8.2237 35.7484 9.01536 35.7484H17.1383V40.6088C17.1383 41.4609 18.1674 41.8859 18.7695 41.2838L28.0695 31.9838C28.6299 31.4234 28.6299 30.5171 28.0695 29.9567L18.7695 20.6567Z" fill="#70C183"/>
<path fill-rule="evenodd" clip-rule="evenodd" d="M41.9862 14.2459H33.8633V9.39169C33.8633 8.53961 32.832 8.11253 32.2299 8.71669L22.9299 18.0479C22.3716 18.6084 22.3716 19.5167 22.9341 20.075L32.2341 29.3438C32.8362 29.9438 33.8633 29.5167 33.8633 28.6667V23.8021H41.9862C42.7779 23.8021 43.4195 23.1604 43.4195 22.3688V15.6792C43.4195 14.8875 42.7779 14.2459 41.9862 14.2459Z" fill="#1A5450"/>
</svg>
