<svg width="42" height="42" viewBox="0 0 42 42" fill="none" xmlns="http://www.w3.org/2000/svg">
<g clip-path="url(#clip0_7_4993)">
<path d="M12.224 7.14262C12.2116 7.09311 12.4963 6.90744 12.8553 6.72176L13.5113 6.41231L14.155 7.60062C14.514 8.25667 15.6033 10.3238 16.5811 12.193C17.559 14.0621 18.7102 16.2902 19.1558 17.1443C19.8861 18.5554 19.948 18.7411 19.9109 19.3228C19.8738 19.7437 19.7624 20.0779 19.5395 20.375C19.3662 20.6102 19.0197 20.8949 18.7721 21.0063C18.3512 21.2167 17.7323 21.2291 4.57422 21.2291V19.7437H11.2832C17.4724 19.7437 18.017 19.7189 18.2274 19.5209C18.3512 19.4095 18.4503 19.2609 18.4379 19.1867C18.4379 19.1124 18.3017 18.8153 18.1408 18.5059C17.9799 18.1964 17.101 16.5006 16.1727 14.7305C15.2567 12.9604 13.9941 10.5466 13.3752 9.37071C12.7563 8.20715 12.2364 7.19214 12.224 7.14262Z" fill="white"/>
<path d="M25.4316 12.4281C26.2238 10.9056 27.276 8.91272 27.7587 7.99672L28.6252 6.36279L29.2565 6.72176C29.6031 6.91982 29.8754 7.13025 29.863 7.19214C29.8506 7.25403 29.046 8.82607 28.0558 10.6952L27.9268 10.9435C26.9654 12.7933 25.7379 15.155 25.1221 16.3273C24.4908 17.5527 23.9214 18.6173 23.8596 18.6792C23.81 18.7534 23.7605 18.9639 23.7605 19.1495C23.7605 19.36 23.8472 19.5333 24.0081 19.6075C24.169 19.6942 26.7313 19.7313 37.6242 19.7313V21.2167H30.6924C24.986 21.2167 23.6986 21.192 23.4263 21.0434C23.2283 20.9568 22.9559 20.7463 22.8074 20.5854C22.6589 20.4245 22.4484 20.0779 22.3494 19.8303C22.238 19.5704 22.1514 19.2238 22.1514 19.0505C22.1514 18.8896 22.5598 17.9489 23.0673 16.9833C23.5625 16.0055 24.627 13.963 25.4316 12.4281Z" fill="white"/>
<path d="M19.8614 22.9002C20.0718 22.7516 20.4308 22.6031 20.666 22.5659C20.9135 22.5164 21.2477 22.5041 21.4087 22.5412C21.582 22.5783 21.8667 22.6773 22.0276 22.764C22.2009 22.8506 22.4608 23.0487 22.597 23.2096C22.7455 23.3705 23.253 24.138 23.7358 24.9178C24.2185 25.71 25.0355 27.0716 25.5678 27.9505C26.0876 28.8417 27.2388 30.7356 28.1053 32.1591C28.9842 33.595 29.7021 34.8081 29.7021 34.8576C29.7021 34.9071 29.4298 35.1175 28.4643 35.6869L28.2291 35.2908C28.0929 35.068 26.5085 32.4686 24.726 29.4978C21.9781 24.955 21.421 24.1132 21.1611 24.0761C20.9878 24.0637 20.7774 24.138 20.6536 24.2618C20.5422 24.3856 18.9825 26.9107 17.2 29.8691C15.4176 32.8399 13.8951 35.3527 13.8208 35.4641C13.6846 35.6498 13.6227 35.6374 12.3725 34.8823L12.7191 34.3253C12.9172 34.0282 14.514 31.3793 16.2841 28.4704C18.4503 24.8931 19.6138 23.0735 19.8614 22.9002Z" fill="white"/>
</g>
<defs>
<clipPath id="clip0_7_4993">
<rect width="41.6938" height="41.6938" fill="white"/>
</clipPath>
</defs>
</svg>
